Coordinates
version=1
nRows=24
nColumns=22
inDegrees=yes

Units are S.I. units (second, meters, Newtons, ...)
If the header above contains a line with 'inDegrees', this indicates whether rotational values are in degrees (yes) or radians (no).

endheader
time	pelvis_tilt	pelvis_list	pelvis_rotation	pelvis_tx	pelvis_ty	pelvis_tz	hip_flexion_r	hip_adduction_r	hip_rotation_r	knee_angle_r	ankle_angle_r	subtalar_angle_r	hip_flexion_l	hip_adduction_l	hip_rotation_l	knee_angle_l	ankle_angle_l	subtalar_angle_l	lumbar_extension	lumbar_bending	lumbar_rotation
      2.99000000	     12.27264861	      1.59883753	   -145.06659173	      0.31293822	      0.88726905	     -0.31342455	      8.93061110	      4.14400064	     -1.85780534	    -27.84047711	      7.28287438	    -12.29639493	     31.89897916	     -1.95229356	     -3.02239591	    -76.81619289	     18.13698193	     -1.06462613	     -1.70561316	     -5.26001931	     24.49813046
      3.00000000	     12.01106097	      1.20457344	   -147.13550109	      0.31325778	      0.88524352	     -0.31347839	      8.40891536	      4.04359205	     -3.73399332	    -27.90103960	      8.24102574	    -12.47653781	     31.92632399	     -1.20606356	     -2.45127769	    -76.25910010	     18.24426672	     -0.30269901	     -1.76735077	     -5.42451761	     25.26106439
      3.01000000	     11.80231340	      0.81519593	   -149.19860245	      0.31376802	      0.88292766	     -0.31368065	      7.97613640	      3.88025579	     -5.43617371	    -28.00460195	      9.33284468	    -12.65358450	     32.04338533	     -0.44911674	     -1.75027454	    -75.69141552	     18.35527738	      0.63329497	     -1.79532732	     -5.64326308	     26.06140826
      3.02000000	     11.64960121	      0.42564499	   -151.28023051	      0.31447492	      0.88032946	     -0.31407635	      7.65541430	      3.65439625	     -6.89130319	    -28.17136556	     10.53783852	    -12.81952521	     32.25088280	      0.27861381	     -0.95333743	    -75.13534479	     18.47649369	      1.63853575	     -1.78864765	     -5.91877854	     26.91515332
      3.03000000	     11.53715802	      0.04872195	   -153.38634118	      0.31536149	      0.87747003	     -0.31470196	      7.44520322	      3.39676017	     -8.05670633	    -28.39635823	     11.82309038	    -12.97855662	     32.54684580	      0.91493995	     -0.09725835	    -74.62492613	     18.63588790	      2.59161451	     -1.75374761	     -6.22884260	     27.82592303
      3.04000000	     11.44441506	     -0.31779270	   -155.52211905	      0.31640630	      0.87439811	     -0.31558576	      7.33278441	      3.12361655	     -8.91632726	    -28.68581646	     13.15698069	    -13.12419457	     32.91689960	      1.40957668	      0.74581375	    -74.18831904	     18.82811826	      3.21973026	     -1.71262388	     -6.56653347	     28.79979160
      3.05000000	     11.34666499	     -0.63314308	   -157.66800906	      0.31749259	      0.87116401	     -0.31672688	      7.24049886	      2.91461068	     -9.43871988	    -28.91136736	     14.53273435	    -13.25310892	     33.34939436	      1.69097392	      1.54959103	    -73.84361930	     19.10806131	      3.49453844	     -1.65659661	     -6.88598041	     29.81506949
      3.06000000	     11.21020221	     -0.88545897	   -159.78665288	      0.31868945	      0.86784989	     -0.31808334	      7.15115769	      2.78771458	     -9.69624751	    -29.10433568	     15.91128958	    -13.38788832	     33.83374508	      1.75124723	      2.30918607	    -73.61448255	     19.39518352	      3.45694610	     -1.63911440	     -7.15759997	     30.83422425
      3.07000000	     11.07033731	     -1.08316806	   -161.83573639	      0.31998326	      0.86448146	     -0.31953112	      7.06065146	      2.71851786	     -9.72579777	    -29.22093489	     17.31164617	    -13.57046707	     34.39255217	      1.65023448	      3.02086375	    -73.48438280	     19.69804557	      2.81741620	     -1.62508506	     -7.40420029	     31.80454729
      3.08000000	     10.89879566	     -1.19797665	   -163.79119772	      0.32134524	      0.86114203	     -0.32102239	      6.91071825	      2.75064469	     -9.55194080	    -29.20240964	     18.68844082	    -13.68644954	     34.99633389	      1.37926192	      3.71581755	    -73.43699908	     20.04852398	      1.80967550	     -1.64228578	     -7.58318737	     32.71106461
      3.09000000	     10.71811554	     -1.24687628	   -165.60787932	      0.32282150	      0.85785817	     -0.32241761	      6.70719138	      2.84656371	     -9.23288079	    -29.04468968	     20.05611435	    -13.77011822	     35.66048318	      1.02459329	      4.43236089	    -73.45098217	     20.41468510	      0.61229598	     -1.68561757	     -7.71265185	     33.50082210
      3.10000000	     10.54243766	     -1.24804619	   -167.27334644	      0.32440638	      0.85466302	     -0.32364654	      6.45676004	      2.97815071	     -8.79104724	    -28.75397702	     21.41448588	    -13.82180674	     36.37806973	      0.64362641	      5.18335690	    -73.48604482	     20.77516180	     -0.58132755	     -1.75085275	     -7.81204928	     34.15717430
      3.11000000	     10.36751387	     -1.21966785	   -168.77471764	      0.32609367	      0.85158489	     -0.32462354	      6.15668313	      3.11177960	     -8.29501164	    -28.35213836	     22.76141253	    -13.84594215	     37.13276401	      0.28475457	      5.97224172	    -73.51769319	     21.11830241	     -1.64628633	     -1.85033372	     -7.89230987	     34.67737640
      3.12000000	     10.20019734	     -1.16909312	   -170.11744150	      0.32784195	      0.84865524	     -0.32532829	      5.79336196	      3.24556134	     -7.72830375	    -27.80778574	     24.08407615	    -13.83868636	     37.91820691	     -0.03039978	      6.78939728	    -73.51565988	     21.39549721	     -2.43432530	     -1.97701956	     -7.96140771	     35.05928033
      3.13000000	     10.02591801	     -1.10210607	   -171.31768649	      0.32957614	      0.84591289	     -0.32576597	      5.33710360	      3.37370187	     -7.12164990	    -27.10557409	     25.35786217	    -13.79839561	     38.70037589	     -0.31080105	      7.59848920	    -73.45018820	     21.62960568	     -2.79942650	     -2.14015455	     -8.02117127	     35.33238437
      3.14000000	      9.85616579	     -1.00978749	   -172.35521169	      0.33127776	      0.84334733	     -0.32587326	      4.80290101	      3.49713317	     -6.53855582	    -26.25872530	     26.58839213	    -13.75325393	     39.49696608	     -0.54287674	      8.39776888	    -73.31464865	     21.78296433	     -3.08496278	     -2.32970680	     -8.05779963	     35.45780914
      3.15000000	      9.68070716	     -0.89068105	   -173.26418142	      0.33285868	      0.84098848	     -0.32573621	      4.17581506	      3.62330946	     -5.99231465	    -25.26763858	     27.74445687	    -13.70352152	     40.28237059	     -0.77634079	      9.12231360	    -73.08618998	     21.88560472	     -3.19509861	     -2.54220281	     -8.07445315	     35.49158137
      3.16000000	      9.49702922	     -0.72651444	   -174.05587474	      0.33427347	      0.83887734	     -0.32539105	      3.45767189	      3.78061000	     -5.48315262	    -24.14209973	     28.76889251	    -13.66034760	     41.04684655	     -1.04748375	      9.74984916	    -72.74640922	     21.95148993	     -3.18935701	     -2.77763920	     -8.04968604	     35.43530797
      3.17000000	      9.30456526	     -0.51779265	   -174.75295653	      0.33549183	      0.83703461	     -0.32489595	      2.68831375	      3.96502718	     -5.04546467	    -22.96467763	     29.65229006	    -13.63093636	     41.78330458	     -1.38626107	     10.24194880	    -72.28657664	     21.98181317	     -3.10839798	     -3.03065044	     -7.98895226	     35.31930858
      3.18000000	      9.10527144	     -0.26214453	   -175.35303436	      0.33647146	      0.83554805	     -0.32424547	      1.88385075	      4.18484306	     -4.67599349	    -21.76217267	     30.30650601	    -13.63498466	     42.47166590	     -1.78949839	     10.60949968	    -71.67031954	     21.99955534	     -2.95687706	     -3.29955853	     -7.88872805	     35.14383663
      3.19000000	      8.90816098	      0.02893717	   -175.88835103	      0.33720187	      0.83443853	     -0.32351337	      1.11715734	      4.42454555	     -4.37360579	    -20.65288491	     30.77497460	    -13.65631745	     43.10853461	     -2.27971846	     10.81232104	    -70.88587948	     21.98170951	     -2.78606549	     -3.57268372	     -7.76896123	     34.93026680
      3.20000000	      8.71268938	      0.34401780	   -176.36843233	      0.33766406	      0.83376856	     -0.32271098	      0.40781415	      4.67475804	     -4.10591192	    -19.66945280	     31.03957450	    -13.68033973	     43.66988122	     -2.84044561	     10.86867328	    -69.91035897	     21.92899487	     -2.57550514	     -3.85046626	     -7.64477701	     34.67928409
      3.21000000	      8.55884770	      0.65987948	   -176.83235051	      0.33785867	      0.83351982	     -0.32188136	     -0.19063051	      4.90767298	     -3.81712861	    -18.82372825	     31.09856732	    -13.61489231	     44.17510650	     -3.46506626	     10.75652847	    -68.72801449	     21.81309661	     -2.43605978	     -4.08224470	     -7.54571236	     34.45850820
      3.22000000	      8.40329767	      0.94178409	   -177.23052219	      0.33770792	      0.83373972	     -0.32090889	     -0.77456407	      5.08528755	     -3.58339836	    -18.03331866	     31.00697251	    -13.52404833	     44.54817744	     -4.06554967	     10.54720686	    -67.31984677	     21.71995473	     -2.07020896	     -4.31887894	     -7.50128308	     34.19483973
